<svg width="755" height="693" viewBox="0 0 755 693" fill="none" xmlns="http://www.w3.org/2000/svg">
<rect width="755" height="692.083" rx="83.8889" fill="#13151A"/>
<path d="M122.175 223.456H131.93V233.211H122.175V223.456ZM131.93 223.456H141.684V233.211H131.93V223.456ZM131.93 233.211H141.684V242.965H131.93V233.211ZM122.175 233.211H131.93V242.965H122.175V233.211ZM112.421 242.965H122.175V252.72H112.421V242.965ZM102.666 242.965H112.421V252.72H102.666V242.965ZM92.9119 252.72H102.666V262.475H92.9119V252.72ZM102.666 252.72H112.421V262.475H102.666V252.72ZM151.439 223.456H161.194V233.211H151.439V223.456ZM141.684 223.456H151.439V233.211H141.684V223.456ZM141.684 233.211H151.439V242.965H141.684V233.211ZM151.439 233.211H161.194V242.965H151.439V233.211ZM161.194 223.456H170.948V233.211H161.194V223.456ZM170.948 233.211H180.703V242.965H170.948V233.211ZM161.194 233.211H170.948V242.965H161.194V233.211ZM180.703 242.965H190.457V252.72H180.703V242.965ZM190.457 252.72H200.212V262.475H190.457V252.72ZM180.703 252.72H190.457V262.475H180.703V252.72ZM170.948 252.72H180.703V262.475H170.948V252.72ZM161.194 252.72H170.948V262.475H161.194V252.72ZM151.439 252.72H161.194V262.475H151.439V252.72ZM141.684 242.965H151.439V252.72H141.684V242.965ZM151.439 242.965H161.194V252.72H151.439V242.965ZM161.194 242.965H170.948V252.72H161.194V242.965ZM170.948 242.965H180.703V252.72H170.948V242.965ZM219.721 242.965H229.475V252.72H219.721V242.965ZM229.475 242.965H239.23V252.72H229.475V242.965ZM219.721 252.72H229.475V262.475H219.721V252.72ZM239.23 233.211H248.984V242.965H239.23V233.211ZM239.23 223.456H248.984V233.211H239.23V223.456ZM248.984 223.456H258.739V233.211H248.984V223.456ZM248.984 233.211H258.739V242.965H248.984V233.211ZM200.212 262.475H209.966V272.229H200.212V262.475ZM209.966 262.475H219.721V272.229H209.966V262.475ZM209.966 272.229H219.721V281.984H209.966V272.229ZM229.475 281.984H239.23V291.738H229.475V281.984ZM229.475 291.738H239.23V301.493H229.475V291.738ZM219.721 291.738H229.475V301.493H219.721V291.738ZM219.721 301.493H229.475V311.247H219.721V301.493ZM219.721 311.247H229.475V321.002H219.721V311.247ZM219.721 321.002H229.475V330.756H219.721V321.002ZM219.721 330.756H229.475V340.511H219.721V330.756ZM219.721 340.511H229.475V350.265H219.721V340.511ZM229.475 340.511H239.23V350.265H229.475V340.511ZM229.475 330.756H239.23V340.511H229.475V330.756ZM229.475 321.002H239.23V330.756H229.475V321.002ZM229.475 311.247H239.23V321.002H229.475V311.247ZM229.475 301.493H239.23V311.247H229.475V301.493ZM190.457 262.475H200.212V272.229H190.457V262.475ZM190.457 272.229H200.212V281.984H190.457V272.229ZM190.457 281.984H200.212V291.738H190.457V281.984ZM190.457 291.738H200.212V301.493H190.457V291.738ZM190.457 301.493H200.212V311.247H190.457V301.493ZM190.457 311.247H200.212V321.002H190.457V311.247ZM190.457 321.002H200.212V330.756H190.457V321.002ZM190.457 330.756H200.212V340.511H190.457V330.756ZM190.457 340.511H200.212V350.265H190.457V340.511ZM180.703 340.511H190.457V350.265H180.703V340.511ZM180.703 330.756H190.457V340.511H180.703V330.756ZM180.703 321.002H190.457V330.756H180.703V321.002ZM180.703 311.247H190.457V321.002H180.703V311.247ZM180.703 301.493H190.457V311.247H180.703V301.493ZM180.703 291.738H190.457V301.493H180.703V291.738ZM180.703 281.984H190.457V291.738H180.703V281.984ZM180.703 272.229H190.457V281.984H180.703V272.229ZM180.703 262.475H190.457V272.229H180.703V262.475ZM170.948 262.475H180.703V272.229H170.948V262.475ZM161.194 262.475H170.948V272.229H161.194V262.475ZM161.194 272.229H170.948V281.984H161.194V272.229ZM161.194 281.984H170.948V291.738H161.194V281.984ZM161.194 291.738H170.948V301.493H161.194V291.738ZM161.194 301.493H170.948V311.247H161.194V301.493ZM161.194 311.247H170.948V321.002H161.194V311.247ZM161.194 321.002H170.948V330.756H161.194V321.002ZM161.194 330.756H170.948V340.511H161.194V330.756ZM161.194 340.511H170.948V350.265H161.194V340.511ZM161.194 350.265H170.948V360.02H161.194V350.265ZM170.948 340.511H180.703V350.265H170.948V340.511ZM170.948 330.756H180.703V340.511H170.948V330.756ZM170.948 321.002H180.703V330.756H170.948V321.002ZM170.948 311.247H180.703V321.002H170.948V311.247ZM170.948 291.738H180.703V301.493H170.948V291.738ZM170.948 281.984H180.703V291.738H170.948V281.984ZM170.948 272.229H180.703V281.984H170.948V272.229ZM170.948 301.493H180.703V311.247H170.948V301.493ZM151.439 301.493H161.194V311.247H151.439V301.493ZM141.684 301.493H151.439V311.247H141.684V301.493ZM131.93 301.493H141.684V311.247H131.93V301.493ZM122.175 301.493H131.93V311.247H122.175V301.493ZM122.175 311.247H131.93V321.002H122.175V311.247ZM131.93 311.247H141.684V321.002H131.93V311.247ZM141.684 311.247H151.439V321.002H141.684V311.247ZM151.439 311.247H161.194V321.002H151.439V311.247ZM151.439 340.511H161.194V350.265H151.439V340.511ZM141.684 340.511H151.439V350.265H141.684V340.511ZM131.93 340.511H141.684V350.265H131.93V340.511ZM122.175 340.511H131.93V350.265H122.175V340.511ZM122.175 350.265H131.93V360.02H122.175V350.265ZM131.93 350.265H141.684V360.02H131.93V350.265ZM141.684 350.265H151.439V360.02H141.684V350.265ZM151.439 350.265H161.194V360.02H151.439V350.265ZM170.948 350.265H180.703V360.02H170.948V350.265ZM180.703 350.265H190.457V360.02H180.703V350.265ZM190.457 350.265H200.212V360.02H190.457V350.265ZM219.721 350.265H229.475V360.02H219.721V350.265ZM229.475 350.265H239.23V360.02H229.475V350.265ZM161.194 360.02H170.948V369.774H161.194V360.02ZM161.194 369.774H170.948V379.529H161.194V369.774ZM170.948 369.774H180.703V379.529H170.948V369.774ZM180.703 369.774H190.457V379.529H180.703V369.774ZM190.457 369.774H200.212V379.529H190.457V369.774ZM190.457 360.02H200.212V369.774H190.457V360.02ZM180.703 360.02H190.457V369.774H180.703V360.02ZM170.948 360.02H180.703V369.774H170.948V360.02ZM219.721 360.02H229.475V369.774H219.721V360.02ZM229.475 360.02H239.23V369.774H229.475V360.02ZM229.475 369.774H239.23V379.529H229.475V369.774ZM219.721 369.774H229.475V379.529H219.721V369.774ZM258.739 223.456H268.493V233.211H258.739V223.456ZM268.493 223.456H278.248V233.211H268.493V223.456ZM268.493 233.211H278.248V242.965H268.493V233.211ZM258.739 233.211H268.493V242.965H258.739V233.211ZM258.739 242.965H268.493V252.72H258.739V242.965ZM268.493 242.965H278.248V252.72H268.493V242.965ZM268.493 252.72H278.248V262.475H268.493V252.72ZM258.739 252.72H268.493V262.475H258.739V252.72ZM258.739 262.475H268.493V272.229H258.739V262.475ZM258.739 272.229H268.493V281.984H258.739V272.229ZM258.739 281.984H268.493V291.738H258.739V281.984ZM258.739 291.738H268.493V301.493H258.739V291.738ZM258.739 301.493H268.493V311.247H258.739V301.493ZM258.739 311.247H268.493V321.002H258.739V311.247ZM268.493 301.493H278.248V311.247H268.493V301.493ZM268.493 291.738H278.248V301.493H268.493V291.738ZM268.493 281.984H278.248V291.738H268.493V281.984ZM268.493 272.229H278.248V281.984H268.493V272.229ZM268.493 262.475H278.248V272.229H268.493V262.475ZM268.493 311.247H278.248V321.002H268.493V311.247ZM278.248 242.965H288.002V252.72H278.248V242.965ZM288.002 242.965H297.757V252.72H288.002V242.965ZM288.002 252.72H297.757V262.475H288.002V252.72ZM288.002 262.475H297.757V272.229H288.002V262.475ZM288.002 272.229H297.757V281.984H288.002V272.229ZM278.248 272.229H288.002V281.984H278.248V272.229ZM278.248 281.984H288.002V291.738H278.248V281.984ZM278.248 291.738H288.002V301.493H278.248V291.738ZM278.248 301.493H288.002V311.247H278.248V301.493ZM278.248 262.475H288.002V272.229H278.248V262.475ZM278.248 252.72H288.002V262.475H278.248V252.72ZM278.248 311.247H288.002V321.002H278.248V311.247ZM288.002 301.493H297.757V311.247H288.002V301.493ZM288.002 291.738H297.757V301.493H288.002V291.738ZM288.002 281.984H297.757V291.738H288.002V281.984ZM288.002 311.247H297.757V321.002H288.002V311.247ZM258.739 321.002H268.493V330.756H258.739V321.002ZM258.739 330.756H268.493V340.511H258.739V330.756ZM258.739 340.511H268.493V350.265H258.739V340.511ZM258.739 350.265H268.493V360.02H258.739V350.265ZM258.739 360.02H268.493V369.774H258.739V360.02ZM258.739 369.774H268.493V379.529H258.739V369.774ZM268.493 369.774H278.248V379.529H268.493V369.774ZM278.248 369.774H288.002V379.529H278.248V369.774ZM288.002 369.774H297.757V379.529H288.002V369.774ZM288.002 360.02H297.757V369.774H288.002V360.02ZM288.002 350.265H297.757V360.02H288.002V350.265ZM288.002 340.511H297.757V350.265H288.002V340.511ZM288.002 330.756H297.757V340.511H288.002V330.756ZM288.002 321.002H297.757V330.756H288.002V321.002ZM278.248 321.002H288.002V330.756H278.248V321.002ZM278.248 330.756H288.002V340.511H278.248V330.756ZM278.248 340.511H288.002V350.265H278.248V340.511ZM278.248 350.265H288.002V360.02H278.248V350.265ZM278.248 360.02H288.002V369.774H278.248V360.02ZM268.493 360.02H278.248V369.774H268.493V360.02ZM268.493 350.265H278.248V360.02H268.493V350.265ZM268.493 340.511H278.248V350.265H268.493V340.511ZM268.493 330.756H278.248V340.511H268.493V330.756ZM268.493 321.002H278.248V330.756H268.493V321.002ZM190.457 457.565H200.212V467.319H190.457V457.565ZM180.703 457.565H190.457V467.319H180.703V457.565ZM180.703 447.81H190.457V457.565H180.703V447.81ZM190.457 447.81H200.212V457.565H190.457V447.81ZM200.212 438.056H209.966V447.81H200.212V438.056ZM209.966 428.301H219.721V438.056H209.966V428.301ZM209.966 438.056H219.721V447.81H209.966V438.056ZM219.721 418.547H229.475V428.301H219.721V418.547ZM219.721 408.792H229.475V418.547H219.721V408.792ZM229.475 408.792H239.23V418.547H229.475V408.792ZM229.475 418.547H239.23V428.301H229.475V418.547ZM219.721 399.038H229.475V408.792H219.721V399.038ZM229.475 399.038H239.23V408.792H229.475V399.038ZM229.475 389.283H239.23V399.038H229.475V389.283ZM229.475 379.529H239.23V389.283H229.475V379.529ZM219.721 389.283H229.475V399.038H219.721V389.283ZM219.721 379.529H229.475V389.283H219.721V379.529ZM190.457 379.529H200.212V389.283H190.457V379.529ZM170.948 379.529H180.703V389.283H170.948V379.529ZM180.703 379.529H190.457V389.283H180.703V379.529ZM161.194 379.529H170.948V389.283H161.194V379.529ZM151.439 428.301H161.194V438.056H151.439V428.301ZM141.684 428.301H151.439V438.056H141.684V428.301ZM141.684 438.056H151.439V447.81H141.684V438.056ZM151.439 438.056H161.194V447.81H151.439V438.056ZM170.948 447.81H180.703V457.565H170.948V447.81ZM161.194 447.81H170.948V457.565H161.194V447.81ZM161.194 457.565H170.948V467.319H161.194V457.565ZM170.948 457.565H180.703V467.319H170.948V457.565ZM161.194 428.301H170.948V438.056H161.194V428.301ZM170.948 428.301H180.703V438.056H170.948V428.301ZM190.457 438.056H200.212V447.81H190.457V438.056ZM180.703 438.056H190.457V447.81H180.703V438.056ZM170.948 438.056H180.703V447.81H170.948V438.056ZM161.194 438.056H170.948V447.81H161.194V438.056ZM151.439 418.547H161.194V428.301H151.439V418.547ZM141.684 418.547H151.439V428.301H141.684V418.547ZM131.93 428.301H141.684V438.056H131.93V428.301ZM122.175 428.301H131.93V438.056H122.175V428.301ZM122.175 438.056H131.93V447.81H122.175V438.056ZM131.93 438.056H141.684V447.81H131.93V438.056ZM112.421 428.301H122.175V438.056H112.421V428.301ZM112.421 438.056H122.175V447.81H112.421V438.056ZM102.666 438.056H112.421V447.81H102.666V438.056ZM102.666 428.301H112.421V438.056H102.666V428.301ZM92.9119 447.81H102.666V457.565H92.9119V447.81ZM83.1574 447.81H92.9119V457.565H83.1574V447.81ZM83.1574 457.565H92.9119V467.319H83.1574V457.565ZM161.194 399.038H170.948V408.792H161.194V399.038ZM161.194 389.283H170.948V399.038H161.194V389.283ZM170.948 389.283H180.703V399.038H170.948V389.283ZM180.703 389.283H190.457V399.038H180.703V389.283ZM190.457 389.283H200.212V399.038H190.457V389.283ZM190.457 399.038H200.212V408.792H190.457V399.038ZM180.703 399.038H190.457V408.792H180.703V399.038ZM170.948 399.038H180.703V408.792H170.948V399.038ZM258.739 408.792H268.493V418.547H258.739V408.792ZM258.739 399.038H268.493V408.792H258.739V399.038ZM258.739 389.283H268.493V399.038H258.739V389.283ZM258.739 379.529H268.493V389.283H258.739V379.529ZM268.493 379.529H278.248V389.283H268.493V379.529ZM278.248 379.529H288.002V389.283H278.248V379.529ZM288.002 379.529H297.757V389.283H288.002V379.529ZM288.002 389.283H297.757V399.038H288.002V389.283ZM288.002 399.038H297.757V408.792H288.002V399.038ZM288.002 408.792H297.757V418.547H288.002V408.792ZM268.493 408.792H278.248V418.547H268.493V408.792ZM268.493 399.038H278.248V408.792H268.493V399.038ZM268.493 389.283H278.248V399.038H268.493V389.283ZM278.248 389.283H288.002V399.038H278.248V389.283ZM278.248 399.038H288.002V408.792H278.248V399.038ZM278.248 408.792H288.002V418.547H278.248V408.792ZM297.757 242.965H307.511V252.72H297.757V242.965ZM307.511 242.965H317.266V252.72H307.511V242.965ZM297.757 252.72H307.511V262.475H297.757V252.72ZM92.9119 438.056H102.666V447.81H92.9119V438.056ZM122.175 418.547H131.93V428.301H122.175V418.547ZM131.93 418.547H141.684V428.301H131.93V418.547ZM200.212 447.81H209.966V457.565H200.212V447.81ZM219.721 428.301H229.475V438.056H219.721V428.301ZM151.439 447.81H161.194V457.565H151.439V447.81ZM141.684 447.81H151.439V457.565H141.684V447.81ZM161.194 418.547H170.948V428.301H161.194V418.547ZM131.93 447.81H141.684V457.565H131.93V447.81ZM141.684 457.565H151.439V467.319H141.684V457.565ZM151.439 457.565H161.194V467.319H151.439V457.565ZM112.421 233.211H122.175V242.965H112.421V233.211ZM131.93 242.965H141.684V252.72H131.93V242.965ZM141.684 252.72H151.439V262.475H141.684V252.72ZM151.439 262.475H161.194V272.229H151.439V262.475ZM92.9119 262.475H102.666V272.229H92.9119V262.475ZM219.721 272.229H229.475V281.984H219.721V272.229ZM219.721 281.984H229.475V291.738H219.721V281.984ZM209.966 252.72H219.721V262.475H209.966V252.72ZM229.475 233.211H239.23V242.965H229.475V233.211ZM278.248 233.211H288.002V242.965H278.248V233.211ZM248.984 242.965H258.739V252.72H248.984V242.965ZM307.511 233.211H317.266V242.965H307.511V233.211ZM258.739 418.547H268.493V428.301H258.739V418.547ZM258.739 428.301H268.493V438.056H258.739V428.301ZM258.739 438.056H268.493V447.81H258.739V438.056ZM268.493 438.056H278.248V447.81H268.493V438.056ZM278.248 438.056H288.002V447.81H278.248V438.056ZM288.002 438.056H297.757V447.81H288.002V438.056ZM288.002 428.301H297.757V438.056H288.002V428.301ZM288.002 418.547H297.757V428.301H288.002V418.547ZM268.493 418.547H278.248V428.301H268.493V418.547ZM268.493 428.301H278.248V438.056H268.493V428.301ZM278.248 428.301H288.002V438.056H278.248V428.301ZM278.248 418.547H288.002V428.301H278.248V418.547ZM288.002 447.81H297.757V457.565H288.002V447.81ZM278.248 447.81H288.002V457.565H278.248V447.81ZM278.248 457.565H288.002V467.319H278.248V457.565ZM288.002 457.565H297.757V467.319H288.002V457.565ZM297.757 428.301H307.511V438.056H297.757V428.301ZM307.511 428.301H317.266V438.056H307.511V428.301ZM307.511 438.056H317.266V447.81H307.511V438.056ZM297.757 438.056H307.511V447.81H297.757V438.056ZM297.757 447.81H307.511V457.565H297.757V447.81ZM317.266 233.211H327.02V242.965H317.266V233.211ZM317.266 223.456H327.02V233.211H317.266V223.456ZM268.493 447.81H278.248V457.565H268.493V447.81ZM424.499 281.984H434.253V291.738H424.499V281.984ZM404.99 301.493H414.744V311.247H404.99V301.493ZM414.744 291.738H424.499V301.493H414.744V291.738ZM424.499 291.738H434.253V301.493H424.499V291.738ZM424.499 301.493H434.253V311.247H424.499V301.493ZM414.744 301.493H424.499V311.247H414.744V301.493ZM395.235 311.247H404.99V321.002H395.235V311.247ZM395.235 321.002H404.99V330.756H395.235V321.002ZM395.235 330.756H404.99V340.511H395.235V330.756ZM404.99 330.756H414.744V340.511H404.99V330.756ZM404.99 340.511H414.744V350.265H404.99V340.511ZM424.499 340.511H434.253V350.265H424.499V340.511ZM424.499 321.002H434.253V330.756H424.499V321.002ZM424.499 311.247H434.253V321.002H424.499V311.247ZM414.744 311.247H424.499V321.002H414.744V311.247ZM404.99 311.247H414.744V321.002H404.99V311.247ZM404.99 321.002H414.744V330.756H404.99V321.002ZM414.744 330.756H424.499V340.511H414.744V330.756ZM424.499 330.756H434.253V340.511H424.499V330.756ZM414.744 321.002H424.499V330.756H414.744V321.002ZM395.235 428.301H404.99V438.056H395.235V428.301ZM395.235 418.547H404.99V428.301H395.235V418.547ZM404.99 418.547H414.744V428.301H404.99V418.547ZM395.235 408.792H404.99V418.547H395.235V408.792ZM395.235 399.038H404.99V408.792H395.235V399.038ZM395.235 389.283H404.99V399.038H395.235V389.283ZM395.235 360.02H404.99V369.774H395.235V360.02ZM395.235 350.265H404.99V360.02H395.235V350.265ZM395.235 340.511H404.99V350.265H395.235V340.511ZM404.99 350.265H414.744V360.02H404.99V350.265ZM414.744 369.774H424.499V379.529H414.744V369.774ZM404.99 379.529H414.744V389.283H404.99V379.529ZM404.99 389.283H414.744V399.038H404.99V389.283ZM404.99 399.038H414.744V408.792H404.99V399.038ZM404.99 408.792H414.744V418.547H404.99V408.792ZM414.744 408.792H424.499V418.547H414.744V408.792ZM414.744 399.038H424.499V408.792H414.744V399.038ZM424.499 399.038H434.253V408.792H424.499V399.038ZM424.499 389.283H434.253V399.038H424.499V389.283ZM424.499 379.529H434.253V389.283H424.499V379.529ZM424.499 369.774H434.253V379.529H424.499V369.774ZM424.499 360.02H434.253V369.774H424.499V360.02ZM424.499 350.265H434.253V360.02H424.499V350.265ZM414.744 389.283H424.499V399.038H414.744V389.283ZM414.744 379.529H424.499V389.283H414.744V379.529ZM395.235 379.529H404.99V389.283H395.235V379.529ZM395.235 369.774H404.99V379.529H395.235V369.774ZM404.99 360.02H414.744V369.774H404.99V360.02ZM404.99 369.774H414.744V379.529H404.99V369.774ZM414.744 360.02H424.499V369.774H414.744V360.02ZM414.744 350.265H424.499V360.02H414.744V350.265ZM414.744 340.511H424.499V350.265H414.744V340.511ZM385.481 340.511H395.235V350.265H385.481V340.511ZM385.481 350.265H395.235V360.02H385.481V350.265ZM375.726 350.265H385.481V360.02H375.726V350.265ZM385.481 360.02H395.235V369.774H385.481V360.02ZM385.481 369.774H395.235V379.529H385.481V369.774ZM375.726 369.774H385.481V379.529H375.726V369.774ZM375.726 360.02H385.481V369.774H375.726V360.02ZM375.726 340.511H385.481V350.265H375.726V340.511ZM365.972 340.511H375.726V350.265H365.972V340.511ZM365.972 350.265H375.726V360.02H365.972V350.265ZM365.972 360.02H375.726V369.774H365.972V360.02ZM365.972 369.774H375.726V379.529H365.972V369.774ZM434.253 360.02H444.008V369.774H434.253V360.02ZM434.253 369.774H444.008V379.529H434.253V369.774ZM444.008 369.774H453.762V379.529H444.008V369.774ZM444.008 360.02H453.762V369.774H444.008V360.02ZM444.008 350.265H453.762V360.02H444.008V350.265ZM444.008 340.511H453.762V350.265H444.008V340.511ZM434.253 340.511H444.008V350.265H434.253V340.511ZM434.253 350.265H444.008V360.02H434.253V350.265ZM356.217 350.265H365.972V360.02H356.217V350.265ZM346.463 360.02H356.217V369.774H346.463V360.02ZM336.708 369.774H346.463V379.529H336.708V369.774ZM346.463 369.774H356.217V379.529H346.463V369.774ZM356.217 369.774H365.972V379.529H356.217V369.774ZM356.217 360.02H365.972V369.774H356.217V360.02ZM453.762 360.02H463.517V369.774H453.762V360.02ZM453.762 369.774H463.517V379.529H453.762V369.774ZM463.517 360.02H473.272V369.774H463.517V360.02ZM473.272 350.265H483.026V360.02H473.272V350.265ZM483.026 340.511H492.781V350.265H483.026V340.511ZM473.272 340.511H483.026V350.265H473.272V340.511ZM463.517 340.511H473.272V350.265H463.517V340.511ZM453.762 340.511H463.517V350.265H453.762V340.511ZM463.517 350.265H473.272V360.02H463.517V350.265ZM453.762 350.265H463.517V360.02H453.762V350.265ZM600.223 281.984H609.978V291.738H600.223V281.984ZM580.714 301.493H590.469V311.247H580.714V301.493ZM590.469 291.738H600.223V301.493H590.469V291.738ZM600.223 291.738H609.978V301.493H600.223V291.738ZM600.223 301.493H609.978V311.247H600.223V301.493ZM590.469 301.493H600.223V311.247H590.469V301.493ZM570.96 311.247H580.714V321.002H570.96V311.247ZM570.96 321.002H580.714V330.756H570.96V321.002ZM570.96 330.756H580.714V340.511H570.96V330.756ZM580.714 330.756H590.469V340.511H580.714V330.756ZM580.714 340.511H590.469V350.265H580.714V340.511ZM600.223 340.511H609.978V350.265H600.223V340.511ZM600.223 321.002H609.978V330.756H600.223V321.002ZM600.223 311.247H609.978V321.002H600.223V311.247ZM590.469 311.247H600.223V321.002H590.469V311.247ZM580.714 311.247H590.469V321.002H580.714V311.247ZM580.714 321.002H590.469V330.756H580.714V321.002ZM590.469 330.756H600.223V340.511H590.469V330.756ZM600.223 330.756H609.978V340.511H600.223V330.756ZM590.469 321.002H600.223V330.756H590.469V321.002ZM570.96 428.301H580.714V438.056H570.96V428.301ZM570.96 418.547H580.714V428.301H570.96V418.547ZM580.714 418.547H590.469V428.301H580.714V418.547ZM570.96 408.792H580.714V418.547H570.96V408.792ZM570.96 399.038H580.714V408.792H570.96V399.038ZM570.96 389.283H580.714V399.038H570.96V389.283ZM570.96 360.02H580.714V369.774H570.96V360.02ZM570.96 350.265H580.714V360.02H570.96V350.265ZM570.96 340.511H580.714V350.265H570.96V340.511ZM580.714 350.265H590.469V360.02H580.714V350.265ZM590.469 369.774H600.223V379.529H590.469V369.774ZM580.714 379.529H590.469V389.283H580.714V379.529ZM580.714 389.283H590.469V399.038H580.714V389.283ZM580.714 399.038H590.469V408.792H580.714V399.038ZM580.714 408.792H590.469V418.547H580.714V408.792ZM590.469 408.792H600.223V418.547H590.469V408.792ZM590.469 399.038H600.223V408.792H590.469V399.038ZM600.223 399.038H609.978V408.792H600.223V399.038ZM600.223 389.283H609.978V399.038H600.223V389.283ZM600.223 379.529H609.978V389.283H600.223V379.529ZM600.223 369.774H609.978V379.529H600.223V369.774ZM600.223 360.02H609.978V369.774H600.223V360.02ZM600.223 350.265H609.978V360.02H600.223V350.265ZM590.469 389.283H600.223V399.038H590.469V389.283ZM590.469 379.529H600.223V389.283H590.469V379.529ZM570.96 379.529H580.714V389.283H570.96V379.529ZM570.96 369.774H580.714V379.529H570.96V369.774ZM580.714 360.02H590.469V369.774H580.714V360.02ZM580.714 369.774H590.469V379.529H580.714V369.774ZM590.469 360.02H600.223V369.774H590.469V360.02ZM590.469 350.265H600.223V360.02H590.469V350.265ZM590.469 340.511H600.223V350.265H590.469V340.511ZM561.205 340.511H570.96V350.265H561.205V340.511ZM561.205 350.265H570.96V360.02H561.205V350.265ZM551.451 350.265H561.205V360.02H551.451V350.265ZM561.205 360.02H570.96V369.774H561.205V360.02ZM561.205 369.774H570.96V379.529H561.205V369.774ZM551.451 369.774H561.205V379.529H551.451V369.774ZM551.451 360.02H561.205V369.774H551.451V360.02ZM551.451 340.511H561.205V350.265H551.451V340.511ZM541.696 340.511H551.451V350.265H541.696V340.511ZM541.696 350.265H551.451V360.02H541.696V350.265ZM541.696 360.02H551.451V369.774H541.696V360.02ZM541.696 369.774H551.451V379.529H541.696V369.774ZM609.978 360.02H619.732V369.774H609.978V360.02ZM609.978 369.774H619.732V379.529H609.978V369.774ZM619.732 369.774H629.487V379.529H619.732V369.774ZM619.732 360.02H629.487V369.774H619.732V360.02ZM619.732 350.265H629.487V360.02H619.732V350.265ZM619.732 340.511H629.487V350.265H619.732V340.511ZM609.978 340.511H619.732V350.265H609.978V340.511ZM609.978 350.265H619.732V360.02H609.978V350.265ZM531.942 350.265H541.696V360.02H531.942V350.265ZM522.187 360.02H531.942V369.774H522.187V360.02ZM512.433 369.774H522.187V379.529H512.433V369.774ZM522.187 369.774H531.942V379.529H522.187V369.774ZM531.942 369.774H541.696V379.529H531.942V369.774ZM531.942 360.02H541.696V369.774H531.942V360.02ZM629.487 360.02H639.241V369.774H629.487V360.02ZM629.487 369.774H639.241V379.529H629.487V369.774ZM639.241 360.02H648.996V369.774H639.241V360.02ZM648.996 350.265H658.75V360.02H648.996V350.265ZM658.75 340.511H668.505V350.265H658.75V340.511ZM648.996 340.511H658.75V350.265H648.996V340.511ZM639.241 340.511H648.996V350.265H639.241V340.511ZM629.487 340.511H639.241V350.265H629.487V340.511ZM639.241 350.265H648.996V360.02H639.241V350.265ZM629.487 350.265H639.241V360.02H629.487V350.265Z" fill="white"/>
</svg>
